<svg width="64" height="64" viewBox="0 0 64 64" fill="none" xmlns="http://www.w3.org/2000/svg" role="img" aria-label="DocDist">
  <rect x="6" y="6" width="52" height="52" rx="11" fill="#152338"/>
  <path d="M7 53L53 7H58V18L18 58H7V53Z" fill="#2563EB" fill-opacity="0.58"/>
  <path d="M16 58L58 16V29L29 58H16Z" fill="#14B8A6" fill-opacity="0.58"/>
  <path d="M25 58L58 25V43L43 58H25Z" fill="#22C55E" fill-opacity="0.64"/>
  <rect x="14" y="17" width="23" height="30" rx="3" fill="#BFDBFE"/>
  <rect x="18" y="13" width="25" height="35" rx="4" fill="#EFF6FF"/>
  <path d="M36 13L43 20H36V13Z" fill="#93C5FD"/>
  <path d="M36 13V20H43" stroke="#60A5FA" stroke-width="1.2" stroke-linejoin="round"/>
  <rect x="24" y="25" width="14" height="1.8" rx="0.9" fill="#60A5FA"/>
  <rect x="24" y="30" width="16" height="1.8" rx="0.9" fill="#60A5FA"/>
  <rect x="24" y="35" width="12" height="1.8" rx="0.9" fill="#60A5FA"/>
  <rect x="24" y="40" width="15" height="1.8" rx="0.9" fill="#60A5FA"/>
  <path d="M40 29H47V22M47 29V38H52M40 29H52" stroke="#22C55E" stroke-width="2.4" stroke-linecap="round" stroke-linejoin="round"/>
  <circle cx="40" cy="29" r="3.8" fill="#DBEAFE" stroke="#15803D" stroke-width="1.6"/>
  <circle cx="47" cy="22" r="3.2" fill="#BBF7D0" stroke="#15803D" stroke-width="1.6"/>
  <circle cx="52" cy="29" r="3.2" fill="#BBF7D0" stroke="#15803D" stroke-width="1.6"/>
  <circle cx="52" cy="38" r="3.2" fill="#BBF7D0" stroke="#15803D" stroke-width="1.6"/>
  <circle cx="40" cy="29" r="0.9" fill="#152338"/>
  <circle cx="47" cy="22" r="0.8" fill="#152338"/>
  <circle cx="52" cy="29" r="0.8" fill="#152338"/>
  <circle cx="52" cy="38" r="0.8" fill="#152338"/>
</svg>
